{"asset":{"version":"2.0","generator":"Blockbench 5.1.4 glTF exporter"},"scenes":[{"nodes":[0,1,2,3],"name":"blockbench_export"}],"scene":0,"nodes":[{"rotation":[0.5,0.4999999999999999,-0.5,0.5000000000000001],"translation":[1,0.125,0],"name":"arm_right","mesh":0},{"rotation":[0.5,-0.4999999999999999,0.5,0.5000000000000001],"translation":[-1,0.125,0],"name":"arm_left","mesh":1},{"rotation":[0,-1,0,6.123233995736766e-17],"translation":[1,0.93359375,-1.9375],"name":"mesh","mesh":2},{"rotation":[0,-1,0,6.123233995736766e-17],"translation":[1,1.05859375,-1.9375],"name":"mesh","mesh":3}],"bufferViews":[{"buffer":0,"byteOffset":0,"byteLength":888,"target":34962,"byteStride":12},{"buffer":0,"byteOffset":888,"byteLength":888,"target":34962,"byteStride":12},{"buffer":0,"byteOffset":1776,"byteLength":592,"target":34962,"byteStride":8},{"buffer":0,"byteOffset":2368,"byteLength":72,"target":34963},{"buffer":0,"byteOffset":2440,"byteLength":120,"target":34963},{"buffer":0,"byteOffset":2560,"byteLength":888,"target":34962,"byteStride":12},{"buffer":0,"byteOffset":3448,"byteLength":888,"target":34962,"byteStride":12},{"buffer":0,"byteOffset":4336,"byteLength":592,"target":34962,"byteStride":8},{"buffer":0,"byteOffset":4928,"byteLength":72,"target":34963},{"buffer":0,"byteOffset":5000,"byteLength":120,"target":34963},{"buffer":0,"byteOffset":5120,"byteLength":1368,"target":34962,"byteStride":12},{"buffer":0,"byteOffset":6488,"byteLength":1368,"target":34962,"byteStride":12},{"buffer":0,"byteOffset":7856,"byteLength":912,"target":34962,"byteStride":8},{"buffer":0,"byteOffset":8768,"byteLength":72,"target":34963},{"buffer":0,"byteOffset":8840,"byteLength":240,"target":34963},{"buffer":0,"byteOffset":9080,"byteLength":24,"target":34963},{"buffer":0,"byteOffset":9104,"byteLength":480,"target":34962,"byteStride":12},{"buffer":0,"byteOffset":9584,"byteLength":480,"target":34962,"byteStride":12},{"buffer":0,"byteOffset":10064,"byteLength":320,"target":34962,"byteStride":8},{"buffer":0,"byteOffset":10384,"byteLength":120,"target":34963}],"buffers":[{"byteLength":10504,"uri":"data:application/octet-stream;base64,"}],"accessors":[{"bufferView":0,"componentType":5126,"count":74,"max":[1.918429970741272,0.18225249648094177,0.1875],"min":[-0.000832499994430691,-0.25858625769615173,-0.1875],"type":"VEC3"},{"bufferView":1,"componentType":5126,"count":74,"max":[1,0.9991330504417419,1],"min":[-1,-0.9991330504417419,-1],"type":"VEC3"},{"bufferView":2,"componentType":5126,"count":74,"max":[0.625,0.625],"min":[0,0],"type":"VEC2"},{"bufferView":3,"componentType":5123,"count":36,"max":[23],"min":[0],"type":"SCALAR"},{"bufferView":4,"componentType":5123,"count":60,"max":[73],"min":[24],"type":"SCALAR"},{"bufferView":5,"componentType":5126,"count":74,"max":[0.000832499994430691,0.18225249648094177,0.1875],"min":[-1.918429970741272,-0.25858625769615173,-0.1875],"type":"VEC3"},{"bufferView":6,"componentType":5126,"count":74,"max":[1,0.9991330504417419,1],"min":[-1,-0.9991330504417419,-1],"type":"VEC3"},{"bufferView":7,"componentType":5126,"count":74,"max":[0.625,0.625],"min":[0,0],"type":"VEC2"},{"bufferView":8,"componentType":5123,"count":36,"max":[23],"min":[0],"type":"SCALAR"},{"bufferView":9,"componentType":5123,"count":60,"max":[73],"min":[24],"type":"SCALAR"},{"bufferView":10,"componentType":5126,"count":114,"max":[0.09375,-0.05859375,0.46875],"min":[-0.09375,-0.37109375,-0.40625],"type":"VEC3"},{"bufferView":11,"componentType":5126,"count":114,"max":[1,1,1],"min":[-1,-1,-1],"type":"VEC3"},{"bufferView":12,"componentType":5126,"count":114,"max":[0.5625,0.75],"min":[0,0],"type":"VEC2"},{"bufferView":13,"componentType":5123,"count":36,"max":[25],"min":[0],"type":"SCALAR"},{"bufferView":14,"componentType":5123,"count":120,"max":[105],"min":[26],"type":"SCALAR"},{"bufferView":15,"componentType":5123,"count":12,"max":[113],"min":[106],"type":"SCALAR"},{"bufferView":16,"componentType":5126,"count":40,"max":[0.09375,0.12890625,0.46875],"min":[-0.09375,-0.05859375,-0.40625],"type":"VEC3"},{"bufferView":17,"componentType":5126,"count":40,"max":[1,1,1],"min":[-1,-1,-1],"type":"VEC3"},{"bufferView":18,"componentType":5126,"count":40,"max":[0.53125,0.625],"min":[0,0],"type":"VEC2"},{"bufferView":19,"componentType":5123,"count":60,"max":[39],"min":[0],"type":"SCALAR"}],"materials":[{"pbrMetallicRoughness":{"metallicFactor":0,"roughnessFactor":1,"baseColorTexture":{"index":0}},"alphaMode":"MASK","alphaCutoff":0.05,"doubleSided":true},{"pbrMetallicRoughness":{"metallicFactor":0,"roughnessFactor":1,"baseColorTexture":{"index":1}},"alphaMode":"MASK","alphaCutoff":0.05,"doubleSided":true},{"pbrMetallicRoughness":{"metallicFactor":0,"roughnessFactor":1,"baseColorTexture":{"index":2}},"alphaMode":"MASK","alphaCutoff":0.05,"doubleSided":true},{"pbrMetallicRoughness":{"metallicFactor":0,"roughnessFactor":1,"baseColorTexture":{"index":3}},"alphaMode":"MASK","alphaCutoff":0.05,"doubleSided":true}],"textures":[{"sampler":0,"source":0,"name":"arm.png"},{"sampler":1,"source":1,"name":"hand.png"},{"sampler":2,"source":2,"name":"glock_01.png"},{"sampler":3,"source":3,"name":"glock_03.png"}],"samplers":[{"magFilter":9728,"minFilter":9728,"wrapS":33071,"wrapT":33071},{"magFilter":9728,"minFilter":9728,"wrapS":33071,"wrapT":33071},{"magFilter":9728,"minFilter":9728,"wrapS":33071,"wrapT":33071},{"magFilter":9728,"minFilter":9728,"wrapS":33071,"wrapT":33071}],"images":[{"mimeType":"image/png","uri":"data:image/png;base64,"},{"mimeType":"image/png","uri":"data:image/png;base64,"},{"mimeType":"image/png","uri":"data:image/png;base64,"},{"mimeType":"image/png","uri":"data:image/png;base64,"}],"meshes":[{"primitives":[{"mode":4,"attributes":{"POSITION":0,"NORMAL":1,"TEXCOORD_0":2},"indices":3,"material":0},{"mode":4,"attributes":{"POSITION":0,"NORMAL":1,"TEXCOORD_0":2},"indices":4,"material":1}]},{"primitives":[{"mode":4,"attributes":{"POSITION":5,"NORMAL":6,"TEXCOORD_0":7},"indices":8,"material":0},{"mode":4,"attributes":{"POSITION":5,"NORMAL":6,"TEXCOORD_0":7},"indices":9,"material":1}]},{"primitives":[{"mode":4,"attributes":{"POSITION":10,"NORMAL":11,"TEXCOORD_0":12},"indices":13,"material":2},{"mode":4,"attributes":{"POSITION":10,"NORMAL":11,"TEXCOORD_0":12},"indices":14,"material":3},{"mode":4,"attributes":{"POSITION":10,"NORMAL":11,"TEXCOORD_0":12},"indices":15,"material":2}]},{"primitives":[{"mode":4,"attributes":{"POSITION":16,"NORMAL":17,"TEXCOORD_0":18},"indices":19,"material":2}]}]}